<?xml version="1.0" standalone="no"?>
<!DOCTYPE svg PUBLIC "-//W3C//DTD SVG 20010904//EN"
 "http://www.w3.org/TR/2001/REC-SVG-20010904/DTD/svg10.dtd">
<svg version="1.0" xmlns="http://www.w3.org/2000/svg"
 width="885.000000pt" height="885.000000pt" viewBox="0 0 885.000000 885.000000"
 preserveAspectRatio="xMidYMid meet">
<metadata>
Created by potrace 1.14, written by Peter Selinger 2001-2017
</metadata>
<g transform="translate(0.000000,885.000000) scale(0.100000,-0.100000)"
fill="#000000" stroke="none">
<path d="M1003 8668 c-104 -198 -993 -1989 -992 -1999 0 -8 226 -464 502
-1014 l502 -1000 1335 -3 1335 -2 80 157 c43 87 79 160 80 163 1 3 191 384
423 847 232 464 422 849 422 855 1 7 -225 466 -502 1020 l-503 1008 -1332 0
-1332 0 -18 -32z m3088 -1008 c258 -514 473 -948 480 -963 11 -26 -16 -84
-467 -987 l-479 -960 -1274 3 -1274 2 -453 905 c-249 498 -465 930 -479 961
l-27 55 115 230 c63 127 120 239 126 250 6 10 96 191 200 401 104 209 194 389
200 400 6 10 61 119 122 243 62 124 131 264 155 313 l44 87 1272 -2 1272 -3
467 -935z"/>
<path d="M4670 5416 l-505 -1013 505 -1011 505 -1012 1330 0 1330 0 506 1012
506 1012 -506 1013 -506 1013 -1330 -1 -1330 0 -505 -1013z m3529 57 c234
-468 450 -901 480 -962 l55 -110 -480 -960 -479 -960 -1269 2 -1269 2 -480
959 -480 959 481 964 482 963 1267 -2 1266 -3 426 -852z"/>
<path d="M610 3186 l-506 -1013 506 -1012 505 -1011 1335 0 1335 0 506 1012
506 1012 -506 1013 -506 1013 -1335 -1 -1335 0 -505 -1013z m3590 -41 c261
-524 476 -959 478 -967 1 -7 -212 -443 -475 -968 l-478 -955 -1275 -2 -1275
-2 -479 962 -479 961 482 963 481 963 1272 -1 1273 0 475 -954z"/>
</g>
</svg>
